<?xml version="1.0" encoding="UTF-8" standalone="no"?>
<!-- Created with Inkscape (http://www.inkscape.org/) -->

<svg
   width="80.688034mm"
   height="82.181625mm"
   viewBox="0 0 80.688034 82.181625"
   version="1.1"
   id="svg1"
   xmlns="http://www.w3.org/2000/svg"
   xmlns:svg="http://www.w3.org/2000/svg">
  <defs
     id="defs1" />
  <g
     id="layer1"
     transform="translate(-39.747719,-102.9519)">
    <path
       style="fill:#48cae4;fill-opacity:1;fill-rule:nonzero;stroke:none;stroke-width:0.2;stroke-opacity:1"
       d="m 64.481381,149.35253 c 0.06714,-4.6791 0.09963,-8.72702 0.111379,-14.44563 0.01878,-9.14518 0.0085,-8.89573 0.02728,-18.04092 9.56e-4,-0.34643 0.0065,-0.69638 0.08961,-1.03269 0.08311,-0.33632 0.245766,-0.65553 0.486736,-0.90442 0.24097,-0.2489 0.554756,-0.42178 0.888206,-0.51573 0.333449,-0.0939 0.68304,-0.11079 1.029258,-0.12294 4.021614,-0.14117 9.240391,-0.22084 14.475077,0.0513 2.013977,0.1047 3.975538,0.14203 6.160926,0.30601 2.067026,0.15511 4.329065,0.42963 7.017198,1.03802 2.458856,0.55649 4.709023,1.47804 6.712176,2.78686 1.93843,1.26653 3.5999,2.86608 4.97865,4.76914 0.99573,1.37439 1.71155,2.96699 2.13759,4.62221 0.41777,1.62306 0.56753,3.34877 0.39872,5.02957 -0.20279,2.01921 -0.90637,3.85806 -1.78928,5.50556 -0.86964,1.62273 -1.94401,3.10955 -2.9507,4.41436 -0.83366,1.08054 -1.7971,1.99647 -2.75986,2.78992 -0.96086,0.79188 -1.965195,1.49679 -2.871891,2.12145 l -0.926358,-4.65575 c 1.30356,0.27846 2.389999,0.54283 3.325219,0.81016 0.94305,0.26957 1.74117,0.54462 2.46106,0.84479 0.72935,0.30411 1.35278,0.62337 1.94303,0.96627 0.58181,0.33799 1.13133,0.69947 1.67528,1.06105 1.91638,1.27386 3.58415,2.86379 4.86076,4.67528 1.3136,1.86399 2.21891,3.97129 2.54898,6.2166 0.39619,2.69507 0.0365,5.4522 -0.77488,7.92082 -0.85203,2.59216 -2.23092,4.96594 -3.94728,6.84014 -1.02919,1.12383 -2.09521,2.10984 -3.24674,2.96553 -1.19174,0.88557 -2.44988,1.61258 -3.80911,2.20164 -1.4078,0.61012 -2.898203,1.06089 -4.487611,1.3873 -1.656452,0.34019 -3.425611,0.54615 -5.310496,0.6522 -1.939602,0.10914 -3.639943,0.1396 -5.287792,0.13111 -1.726146,-0.009 -3.480264,-0.062 -5.286795,-0.11948 -4.443862,-0.14144 -8.754101,-0.28162 -15.638358,-0.25077 -0.359954,0.002 -0.723866,-0.002 -1.073207,-0.0885 -0.349342,-0.0868 -0.680198,-0.25927 -0.933817,-0.51471 -0.25362,-0.25543 -0.423757,-0.58751 -0.508039,-0.93746 -0.08428,-0.34995 -0.08501,-0.71388 -0.08083,-1.07381 1.6e-5,-0.001 0.16107,-13.12526 0.22766,-18.1193 0.02838,-2.1286 0.09986,-7.15658 0.128245,-9.28518 z m 5.168438,0.0742 c 0.04793,-3.34022 -0.1761,12.62016 -0.128172,9.27994 -0.06656,4.99164 -0.227565,18.11174 -0.227549,18.1104 0.0042,-0.35993 0.0035,-0.72386 -0.08083,-1.07381 -0.08428,-0.34995 -0.254419,-0.68203 -0.508039,-0.93746 -0.253619,-0.25544 -0.584475,-0.42794 -0.933817,-0.51471 -0.349341,-0.0868 -0.713253,-0.0901 -1.073207,-0.0885 6.979475,-0.0313 11.364615,0.11134 15.825939,0.25333 1.81194,0.0577 3.501147,0.10844 5.149012,0.11693 1.559538,0.008 3.152779,-0.0207 4.970766,-0.123 1.697107,-0.0955 3.207469,-0.27671 4.561032,-0.55469 1.293282,-0.2656 2.434687,-0.61717 3.472055,-1.06674 0.99479,-0.43113 1.90815,-0.95881 2.78152,-1.60781 0.84808,-0.6302 1.6736,-1.38584 2.51773,-2.3076 1.19561,-1.30555 2.2135,-3.03048 2.84878,-4.96322 0.60688,-1.84635 0.83123,-3.7874 0.57139,-5.55498 -0.19884,-1.35262 -0.75689,-2.70905 -1.66016,-3.99078 -0.88047,-1.24938 -2.07199,-2.40095 -3.497,-3.34818 -0.544,-0.36161 -0.97767,-0.6449 -1.41036,-0.89626 -0.41742,-0.2425 -0.83814,-0.45741 -1.33579,-0.66491 -0.49939,-0.20823 -1.10242,-0.41991 -1.892426,-0.64573 -0.788959,-0.22552 -1.755092,-0.46255 -2.984413,-0.72516 -0.554633,-0.11848 -1.119513,-0.25217 -1.595708,-0.56022 -0.476196,-0.30804 -0.844352,-0.79605 -0.955028,-1.35229 -0.110676,-0.55624 0.04264,-1.14801 0.36465,-1.61487 0.322011,-0.46687 0.792691,-0.80661 1.259728,-1.12837 0.894996,-0.6166 1.741002,-1.21421 2.517032,-1.85377 0.770931,-0.63535 1.429236,-1.27736 1.954735,-1.95848 0.9495,-1.23068 1.81941,-2.45232 2.48725,-3.69849 0.67073,-1.25159 1.08734,-2.43727 1.20215,-3.5805 0.10454,-1.0409 0.0138,-2.15551 -0.26142,-3.22457 -0.28066,-1.09036 -0.73842,-2.07856 -1.31766,-2.87806 -1.02214,-1.41085 -2.22857,-2.56538 -3.620063,-3.47455 -1.44041,-0.94113 -3.109027,-1.63877 -5.025898,-2.07261 -2.387277,-0.5403 -4.38954,-0.78442 -6.262979,-0.925 -2.000591,-0.15012 -3.932332,-0.18879 -6.042492,-0.29849 -4.021131,-0.20905 -8.06067,-0.20267 -11.537204,-0.12076 -0.0091,5.04063 -0.0085,10.78083 -0.02165,15.53479 -0.01178,5.7372 -0.04442,9.80658 -0.1119,14.50917 z"
       id="path1" />
    <path
       style="fill:#00b4d8;fill-opacity:1;fill-rule:nonzero;stroke:none;stroke-width:0.2;stroke-opacity:1"
       d="m 71.470151,180.7593 c 0,0 0,0 0,0 1.928151,0.0159 -4.037926,-0.0327 -2.109775,-0.0169 3.429433,0.0269 -11.814028,-0.0888 -8.384594,-0.0618 -2.445027,-0.0167 -5.456098,-0.036 -8.075515,-0.0484 -1.186062,-0.006 -2.314854,-0.01 -3.276654,-0.0119 -0.915109,-0.002 -1.690779,-0.002 -2.219242,0.002 a 2.12,2.12 45.036642 0 0 0.01589,4.23995 c 3.031083,-0.002 5.138471,0.004 6.864924,0.0138 1.468606,0.008 2.6788,0.0205 4.147406,0.0289 a 2.1200027,2.120001 89.688671 0 0 2.131929,-2.15522 c -0.02187,-1.31497 -0.02655,-3.267 -0.01891,-5.66847 0.0078,-2.45744 0.02851,-5.38338 0.05654,-8.56242 0.05745,-6.51733 0.153353,-14.85225 0.232649,-22.07747 0.08065,-7.34843 0.167631,-15.58597 0.212164,-22.57226 0.0213,-3.34179 0.0335,-6.47576 0.03088,-9.19049 -0.0025,-2.64548 -0.01916,-4.91167 -0.05578,-6.59532 a 2.1200054,2.1200021 89.556718 0 0 -2.106201,-2.07387 c -1.953236,-0.0122 -6.382239,-0.046 -8.335475,-0.0583 0.06956,4.7e-4 -1.656687,-0.0104 -1.587124,-0.01 -0.461456,-0.003 -0.840401,-0.004 -1.118165,-0.005 -0.140379,-2.5e-4 -0.2574,-2.1e-4 -0.347393,1.8e-4 -0.04519,2e-4 -0.08655,5e-4 -0.122176,9.5e-4 -0.01793,2.3e-4 -0.0366,5.2e-4 -0.05494,9.2e-4 -0.01673,3.7e-4 -0.04127,9.9e-4 -0.06849,0.002 -0.01346,5.8e-4 -0.03528,0.002 -0.0615,0.003 -0.0134,9.2e-4 -0.03228,0.002 -0.05473,0.004 -0.02053,0.002 -0.05632,0.005 -0.100558,0.0117 -0.02268,0.003 -0.05444,0.008 -0.09219,0.015 -0.03527,0.007 -0.09306,0.0181 -0.163344,0.037 -0.05737,0.0154 -0.193771,0.0539 -0.356849,0.13091 -0.08325,0.0393 -0.218439,0.10958 -0.368445,0.22235 -0.07756,0.0583 -0.171842,0.13748 -0.269451,0.24112 -0.09766,0.10371 -0.209473,0.24337 -0.30934,0.42288 -0.101434,0.18233 -0.190563,0.40619 -0.235979,0.66702 -0.04601,0.26422 -0.04101,0.53207 0.0118,0.7896 0.052,0.25357 0.144167,0.46786 0.243924,0.63949 0.09842,0.16932 0.206255,0.3009 0.299213,0.3983 0.1786,0.18713 0.353409,0.3014 0.455058,0.36148 0.109666,0.0648 0.205094,0.10781 0.268576,0.13406 0.123884,0.0512 0.226079,0.0795 0.275883,0.0925 0.05751,0.015 0.105109,0.0248 0.135844,0.0307 0.06047,0.0116 0.108869,0.0181 0.133031,0.0212 0.02778,0.004 0.05083,0.006 0.06625,0.007 0.03038,0.003 0.05537,0.005 0.06964,0.006 0.02947,0.002 0.05582,0.003 0.07286,0.004 0.03639,0.002 0.07763,0.003 0.118792,0.004 0.0433,0.001 0.09429,0.003 0.152276,0.004 a 2.1194861,2.1206195 45.396156 0 0 0.07135,4.7e-4 c 6.220365,-0.0633 11.191556,-0.0707 14.462415,-0.0683 2.787065,0.002 5.282471,0.0127 6.300011,0.017 1.86079,0.008 2.754128,0.0119 3.228161,0.0135 a 2.12,2.12 90 0 0 0.01488,-4.23998 c -0.472057,-0.002 -1.362329,-0.006 -3.225082,-0.0135 -1.017655,-0.004 -3.51965,-0.0151 -6.314894,-0.0171 -3.274747,-0.002 -8.249166,0.005 -14.472476,0.0681 -0.03712,-9.1e-4 -0.06796,-0.002 -0.09298,-0.002 -0.03178,-9.3e-4 -0.05405,-0.002 -0.05517,-0.002 -5.56e-4,-2e-5 0.0031,0 0.02446,0.001 0.0083,5.6e-4 0.02838,0.002 0.05486,0.005 0.01347,0.001 0.03484,0.004 0.06118,0.007 0.02273,0.003 0.06995,0.009 0.129499,0.0207 0.03027,0.006 0.07747,0.0155 0.134651,0.0304 0.04947,0.0129 0.151396,0.0411 0.275073,0.0923 0.06338,0.0262 0.158718,0.0692 0.268313,0.13394 0.101578,0.06 0.27633,0.17426 0.454808,0.36126 0.09302,0.0975 0.200842,0.22903 0.299246,0.39833 0.09975,0.1716 0.191901,0.38587 0.243901,0.63943 0.05281,0.2575 0.0578,0.52534 0.0118,0.78953 -0.04541,0.26082 -0.134534,0.48465 -0.235956,0.66696 -0.09986,0.17949 -0.21165,0.31912 -0.309189,0.4227 -0.09769,0.10373 -0.191955,0.18289 -0.269421,0.24113 -0.150017,0.11277 -0.285131,0.18298 -0.368299,0.22227 -0.162906,0.077 -0.299076,0.11538 -0.356146,0.13068 -0.06999,0.0188 -0.127411,0.0303 -0.162263,0.0367 -0.03733,0.007 -0.0686,0.0117 -0.09073,0.0148 -0.04314,0.006 -0.07759,0.01 -0.09653,0.0113 -0.02086,0.002 -0.0379,0.003 -0.04921,0.004 -0.02205,0.002 -0.03871,0.002 -0.04603,0.003 -0.01813,7.7e-4 -0.0211,7.3e-4 -0.02007,7e-4 0.001,-2e-5 0.0072,-1.3e-4 0.01634,-2.5e-4 0.01922,-2.5e-4 0.04768,-4.8e-4 0.08682,-6.5e-4 0.07728,-3.3e-4 0.184445,-3.9e-4 0.321369,-1.4e-4 0.269684,4.8e-4 0.642408,0.002 1.10234,0.005 0.04218,2.3e-4 1.539781,0.01 1.581964,0.01 2.977882,0.02 4.085362,0.0289 6.263274,0.0441 0.01396,1.29116 0.02111,2.78925 0.02271,4.44757 0.0026,2.70038 -0.0095,5.82302 -0.0308,9.15939 -0.04446,6.9752 -0.131338,15.20362 -0.211994,22.55275 -0.07925,7.22086 -0.175237,15.56322 -0.232741,22.08662 -0.02805,3.18238 -0.04883,6.11733 -0.05668,8.58631 -0.0042,1.33493 -0.0047,2.54078 -4.89e-4,3.58219 -0.637383,-0.005 -1.277807,-0.01 -1.99565,-0.0139 -1.736898,-0.01 -3.853577,-0.0163 -6.892612,-0.0139 l 0.01589,4.23995 c 0.508538,-0.003 1.269136,-0.004 2.182313,-0.002 0.956478,0.002 2.080993,0.006 3.265128,0.0118 2.614894,0.0124 5.622509,0.0316 8.066555,0.0483 1.728788,0.0118 6.651527,0.05 8.380315,0.0618 0.989107,0.008 3.097312,0.0246 2.108205,0.0168 a 2.12,2.12 90 0 0 0.03486,-4.23986 z"
       id="path4"
       transform="matrix(1,0,0,0.95709531,1.5162381,7.5752683)" />
    <path
       style="fill:#90e0ef;fill-opacity:1;fill-rule:nonzero;stroke:none;stroke-width:0.2;stroke-opacity:1"
       d="m 78.285759,110.67041 c 0.588201,0.0128 1.873498,0.0341 2.461699,0.0468 0.273996,0.006 0.592771,0.0127 0.939231,0.0213 0.620981,0.0154 1.529208,0.0405 2.546842,0.0813 1.081204,0.0434 2.475467,0.11179 3.918128,0.22377 1.201789,0.0933 2.507167,0.22211 3.718251,0.40249 2.764362,0.41001 6.359066,1.27958 9.57479,3.15956 2.04677,1.19447 4.10097,2.9181 5.68172,5.11891 1.41953,1.97604 2.51622,4.39193 3.04048,6.94281 0.47217,2.29435 0.45876,4.7635 -0.0393,7.04904 -0.29728,1.36098 -0.81592,2.72678 -1.45622,4.06322 -0.65513,1.36738 -1.42667,2.68132 -2.18604,3.89299 a 2.0624587,2.0686617 32.207695 0 0 0.64103,2.84303 c 1.26132,0.79861 2.28841,1.56634 3.14889,2.3196 0.88089,0.77112 1.59803,1.53671 2.21087,2.31316 0.63264,0.80153 1.16899,1.63377 1.65787,2.51539 0.50881,0.91759 0.9711,1.89791 1.43118,2.95159 0.33985,0.77565 0.56378,1.68747 0.67899,2.75998 0.10765,1.00213 0.11333,2.0701 0.0659,3.21642 -0.10669,2.56882 -0.68235,5.25216 -1.70588,7.79914 -0.9747,2.42548 -2.28046,4.69575 -3.95283,6.45996 -2.11132,2.22736 -4.75645,3.93074 -7.47135,5.1056 -1.61348,0.69828 -3.263179,1.17824 -4.938278,1.51986 -1.771919,0.36137 -3.589929,0.57094 -5.40456,0.70848 -1.770072,0.1341 -3.144194,0.17155 -4.347086,0.17877 -1.394394,0.008 -2.644042,-0.0207 -3.947058,-0.0302 -0.90033,-0.007 -2.009139,-0.0605 -2.696863,-0.0922 -0.79246,-0.0365 -1.202339,-0.0538 -1.619212,-0.0664 -0.548871,-0.0165 -0.866219,-0.0158 -0.989389,-0.0153 a 2.05,2.05 90 0 0 0.01724,4.09996 c 0.08802,-3.7e-4 0.356856,-0.001 0.84881,0.0135 0.388858,0.0117 0.761369,0.027 1.556449,0.0626 0.656246,0.0294 1.856821,0.0864 2.854838,0.0926 1.270039,0.008 2.528812,0.0366 4.001691,0.0264 1.28009,-0.009 2.750369,-0.0504 4.630715,-0.19403 1.913507,-0.14614 3.914414,-0.37402 5.911696,-0.78242 1.894737,-0.38743 3.822637,-0.94393 5.743047,-1.77596 3.1251,-1.35411 6.255,-3.34966 8.80971,-6.04558 2.12453,-2.24202 3.67297,-4.99871 4.77725,-7.74392 1.19213,-2.96366 1.87276,-6.10246 2.00264,-9.14894 0.0535,-1.25086 0.0557,-2.53988 -0.0792,-3.82055 -0.14511,-1.37787 -0.44608,-2.71629 -0.98854,-3.96557 -0.48521,-1.11573 -1.00343,-2.22596 -1.59698,-3.30124 -0.57455,-1.04087 -1.22838,-2.06563 -2.01926,-3.07218 -0.76785,-0.97724 -1.65718,-1.92777 -2.72464,-2.86624 -0.60066,-0.52808 -1.25513,-1.05011 -1.97383,-1.57041 0.47742,-0.81695 0.95161,-1.68476 1.38874,-2.58766 0.73834,-1.52504 1.39578,-3.19981 1.78942,-4.96359 0.63789,-2.85226 0.67189,-5.91232 0.0988,-8.78428 -0.62973,-3.15313 -1.95788,-6.12525 -3.70064,-8.58212 -1.95895,-2.76115 -4.47633,-4.88801 -6.96538,-6.3607 -3.867435,-2.28504 -8.062714,-3.28932 -11.110509,-3.75492 -1.349902,-0.20548 -2.766407,-0.34789 -4.023635,-0.44885 -1.516868,-0.12182 -2.97053,-0.19652 -4.081663,-0.24367 -1.049992,-0.0446 -1.980713,-0.0722 -2.615494,-0.0889 -0.3546,-0.009 -0.678776,-0.0169 -0.958062,-0.023 -0.84576,-0.0184 -1.61395,-0.0272 -2.45971,-0.0456 a 2.1935592,2.1935592 90 0 0 -0.09527,4.38608 z"
       id="path6"
       transform="matrix(1,0,0,0.95249273,0,7.5348575)" />
    <path
       style="fill:#0096c7;fill-opacity:1;fill-rule:nonzero;stroke:none;stroke-width:0.2;stroke-opacity:1"
       d="m 54.859202,177.03841 c -0.02316,2.85307 0.143819,-16.64161 0.120665,-13.78854 0.0475,-5.12225 0.175393,-18.20483 0.222892,-23.32708 0.09319,-9.85689 0.200471,-21.76084 0.292064,-35.48985 a 2.17,2.17 0.31650569 0 0 -2.160454,-2.18446 c -2.177788,-0.01 -4.369989,-0.0191 -6.271728,-0.0275 -1.901739,-0.008 -4.09394,-0.0179 -6.271727,-0.0275 l -0.01208,4.33998 c 14.865674,0.0177 29.54853,0.0352 36.86298,0.0439 4.412935,0.005 7.679788,0.009 9.215746,0.011 a 2.17,2.17 90 0 0 0.0052,-4.34 c -1.535957,-0.002 -4.80281,-0.006 -9.215745,-0.011 -7.31445,-0.009 -21.997307,-0.0262 -36.862981,-0.0439 a 2.1699999,2.1699999 45.746137 0 0 -0.01208,4.33998 c 2.177788,0.01 4.369989,0.0191 6.271728,0.0275 1.266679,0.006 2.662219,0.0117 4.096531,0.0179 -0.08818,12.80866 -0.18901,23.9719 -0.277224,33.30284 -0.09701,10.26099 -0.125893,13.06688 -0.2229,23.32787 -0.02208,2.38131 -0.09863,11.41224 -0.120709,13.79356 a 2.17,2.17 90 0 0 4.339858,0.0352 z"
       id="path8"
       transform="matrix(1,0,0,0.99530923,1.1371786,1.2378018)" />
  </g>
</svg>
